<svg width="80" height="57" viewBox="0 0 80 57" fill="none" xmlns="http://www.w3.org/2000/svg">
<path d="M65.4118 23.4234C65.4118 22.018 65.8824 20.6126 65.8824 18.7387C65.8824 8.43243 57.4118 0 47.0588 0C39.5294 0 33.4118 4.21622 30.1176 10.3063C29.1765 9.83784 27.2941 9.36937 25.8824 9.36937C19.2941 9.36937 14.1176 14.5225 14.1176 21.0811C14.1176 22.018 14.1176 22.955 14.5882 23.4234C6.11765 24.8288 0 31.3874 0 39.8198C0 48.7207 7.52941 56.2162 16.4706 56.2162H63.5294C72.4706 56.2162 80 48.7207 80 39.8198C80 31.3874 73.8824 24.3604 65.4118 23.4234Z" fill="white"/>
</svg>
